<svg width="343" height="80" viewBox="0 0 343 80" fill="none" xmlns="http://www.w3.org/2000/svg">
<g clip-path="url(#clip0_7445_16267)">
<path d="M10.6523 29.251C8.54378 29.251 6.48578 29.8803 4.73355 31.059C2.97925 32.2408 1.61357 33.9176 0.809008 35.8776C0.00405686 37.839 -0.206071 39.9947 0.204937 42.0752C0.615944 44.1558 1.62982 46.0683 3.11959 47.5736C4.60699 49.0715 6.50447 50.0923 8.5713 50.5067C10.6381 50.9211 12.7811 50.7107 14.7284 49.9016C16.6772 49.087 18.341 47.7107 19.5091 45.947C20.877 43.8808 21.4917 41.4043 21.2495 38.9363C21.0072 36.468 19.9229 34.1595 18.1797 32.4003C17.193 31.4048 16.0203 30.6144 14.7286 30.0739C13.437 29.5336 12.0518 29.2539 10.6523 29.251Z" fill="#0D9488"/>
<path d="M37.9089 68.9733C37.9475 70.4056 37.7007 71.8312 37.1836 73.1669C36.6662 74.5024 35.8887 75.7213 34.8964 76.752C33.9049 77.7781 32.7179 78.5941 31.4063 79.152C30.0947 79.7101 28.6846 79.9984 27.26 80C25.8349 80.0005 24.4243 79.7131 23.1123 79.1552C21.8004 78.5971 20.6139 77.7797 19.6236 76.752C18.6294 75.7227 17.8507 74.504 17.3333 73.168C16.816 71.8323 16.5704 70.4059 16.611 68.9733C16.635 67.112 17.1428 65.288 18.092 63.6907C19.0386 62.0907 20.3867 60.7733 22.0007 59.8693C21.9368 60.16 22.24 59.7227 22.0007 59.8693L26.9462 55.464C30.8665 51.2795 33.0562 45.7579 33.0724 40.016C33.0724 32.2133 28.523 24.28 21.9847 20.1307C21.889 19.88 22.2346 20.2773 21.9847 20.1307C20.3699 19.2241 19.0225 17.9058 18.0788 16.3093C17.1318 14.7101 16.621 12.8892 16.5977 11.0293C16.5588 9.59659 16.8052 8.17043 17.3225 6.83432C17.8397 5.49821 18.6175 4.27899 19.6103 3.248C20.6016 2.22224 21.7879 1.40628 23.0991 0.848389C24.4103 0.290501 25.8197 0.00201615 27.244 1.52484e-06C28.6692 -0.00076364 30.0798 0.286448 31.3919 0.844491C32.7038 1.40253 33.8903 2.21997 34.8804 3.248C35.8749 4.2772 36.6539 5.49571 37.1714 6.83168C37.6888 8.16768 37.9342 9.59405 37.893 11.0267C37.9214 16.8193 40.1547 22.3823 44.1361 26.5787L46.3085 28.712C47.1753 29.472 48.0846 30.1813 49.0312 30.84C50.6824 31.72 52.0677 33.0427 53.0302 34.656C53.7508 35.8637 54.2195 37.2056 54.408 38.6003C54.5966 39.9952 54.5011 41.4136 54.1273 42.7704C53.7534 44.1269 53.1092 45.3933 52.233 46.4931C51.3572 47.5928 50.2678 48.5027 49.0312 49.168C48.8637 49.264 49.1189 48.9893 49.0312 49.168C45.6911 51.2856 42.9282 54.2021 40.9906 57.656C39.0483 61.1157 37.9879 65.0037 37.9089 68.9733ZM49.8289 10.9947C49.8289 13.1173 50.4537 15.1947 51.6263 16.96C52.7946 18.7229 54.4586 20.0983 56.407 20.912C58.3536 21.7249 60.4977 21.9376 62.5653 21.523C64.6329 21.1083 66.5306 20.0851 68.0158 18.584C69.5056 17.0787 70.5195 15.1661 70.9305 13.0856C71.3416 11.0051 71.1313 8.84928 70.3264 6.888C69.5216 4.92896 68.156 3.25307 66.4019 2.072C64.3542 0.694083 61.8921 0.0738005 59.4382 0.317571C56.9843 0.561344 54.6915 1.65397 52.9531 3.408C50.9538 5.424 49.8307 8.15128 49.8289 10.9947ZM60.4831 58.24C58.3773 58.24 56.3166 58.8693 54.5644 60.048C52.8106 61.2291 51.4449 62.9051 50.6398 64.864C49.8342 66.8256 49.6239 68.9821 50.0349 71.0629C50.446 73.144 51.4601 75.0571 52.9504 76.5627C54.4357 78.0637 56.3334 79.0869 58.4009 79.5016C60.4688 79.9163 62.6127 79.7035 64.5592 78.8907C66.5093 78.076 68.1743 76.6987 69.3426 74.9333C70.7114 72.8664 71.3264 70.3891 71.0842 67.92C70.842 65.4507 69.7572 63.1411 68.0132 61.3813C67.0262 60.3856 65.8531 59.5952 64.5608 59.0552C63.2689 58.5152 61.883 58.2363 60.4831 58.2347V58.24ZM87.7423 39.984C87.7423 37.8613 87.1175 35.7867 85.9476 34.0213C84.7795 32.2576 83.1155 30.8811 81.1668 30.0667C79.22 29.2531 77.0753 29.0403 75.0072 29.4549C72.9388 29.8696 71.0409 30.8931 69.5553 32.3947C68.065 33.9003 67.0509 35.8133 66.6398 37.8944C66.2288 39.9752 66.4394 42.1317 67.2447 44.0933C68.0496 46.0523 69.4152 47.7283 71.1693 48.9093C72.9194 50.088 74.9798 50.7173 77.088 50.7173C78.488 50.7152 79.8735 50.4363 81.1655 49.8963C82.4577 49.3563 83.6308 48.5661 84.6181 47.5707C86.6176 45.5536 87.7407 42.8256 87.7423 39.9813V39.984Z" fill="#0D9488"/>
<path d="M145.633 42.2471C145.633 46.1298 144.915 49.5661 143.479 52.5557C142.043 55.5453 139.999 57.8511 137.345 59.4735C134.709 61.0778 131.701 61.8799 128.32 61.8799C124.94 61.8799 121.941 61.1053 119.323 59.5557C116.706 57.9879 114.661 55.7549 113.189 52.8565C111.735 49.9581 110.971 46.6311 110.898 42.8759V40.6338C110.898 36.7327 111.607 33.2965 113.025 30.3253C114.461 27.3357 116.506 25.0296 119.16 23.4072C121.831 21.7848 124.867 20.9736 128.266 20.9736C131.628 20.9736 134.627 21.7757 137.263 23.3799C139.899 24.984 141.943 27.2719 143.398 30.2431C144.87 33.1962 145.615 36.5869 145.633 40.4151V42.2471ZM135.9 40.5791C135.9 36.6234 135.236 33.6247 133.909 31.5831C132.601 29.5231 130.72 28.4933 128.266 28.4933C123.467 28.4933 120.932 32.1026 120.659 39.3213L120.632 42.2471C120.632 46.1482 121.277 49.1469 122.568 51.2431C123.858 53.3394 125.776 54.3877 128.32 54.3877C130.738 54.3877 132.601 53.3578 133.909 51.2978C135.218 49.2381 135.882 46.2757 135.9 42.4111V40.5791ZM158.584 31.7471L158.884 35.2197C160.919 32.5399 163.728 31.2002 167.308 31.2002C170.38 31.2002 172.67 32.1207 174.179 33.9618C175.706 35.8031 176.496 38.5738 176.551 42.2743V61.333H167.336V42.6573C167.336 41.1623 167.036 40.0687 166.436 39.3759C165.836 38.665 164.745 38.3095 163.164 38.3095C161.365 38.3095 160.029 39.0205 159.156 40.4423V61.333H149.968V31.7471H158.584ZM195.936 61.8799C191.41 61.8799 187.747 60.5309 184.948 57.833C182.149 55.1167 180.749 51.5895 180.749 47.2509V46.4853C180.749 43.4594 181.304 40.7887 182.413 38.4735C183.539 36.1586 185.175 34.3719 187.32 33.1143C189.465 31.8383 192.01 31.2002 194.954 31.2002C199.098 31.2002 202.37 32.4943 204.769 35.0829C207.169 37.6533 208.368 41.2445 208.368 45.8565V49.4386H190.101C190.428 51.0973 191.146 52.4007 192.255 53.3487C193.364 54.2965 194.8 54.7706 196.563 54.7706C199.471 54.7706 201.743 53.7495 203.379 51.7079L207.578 56.6845C206.432 58.2706 204.806 59.5375 202.697 60.4853C200.607 61.4151 198.353 61.8799 195.936 61.8799ZM194.9 38.3095C192.21 38.3095 190.61 40.0959 190.101 43.669H199.371V42.9581C199.407 41.4815 199.035 40.3421 198.253 39.5399C197.472 38.7197 196.354 38.3095 194.9 38.3095ZM243.675 28.9306H231.761V61.333H222.191V28.9306H210.495V21.5205H243.675V28.9306ZM263.36 40.0869L260.334 39.8682C257.444 39.8682 255.59 40.7797 254.772 42.6026V61.333H245.584V31.7471H254.2L254.499 35.5479C256.044 32.6495 258.198 31.2002 260.961 31.2002C261.943 31.2002 262.797 31.3095 263.524 31.5282L263.36 40.0869ZM276.364 61.333H267.151V31.7471H276.364V61.333ZM266.606 24.1182C266.606 22.8057 267.076 21.7302 268.023 20.8916C268.967 20.0531 270.195 19.6338 271.703 19.6338C273.211 19.6338 274.439 20.0531 275.383 20.8916C276.329 21.7302 276.803 22.8057 276.803 24.1182C276.803 25.4307 276.329 26.5062 275.383 27.3447C274.439 28.1831 273.211 28.6026 271.703 28.6026C270.195 28.6026 268.967 28.1831 268.023 27.3447C267.076 26.5062 266.606 25.4307 266.606 24.1182ZM309.436 46.7861C309.436 51.6351 308.436 55.3629 306.439 57.9698C304.44 60.5765 301.621 61.8799 297.986 61.8799C294.987 61.8799 292.57 60.6858 290.733 58.2978L290.353 61.333H282.118V19.333H291.307V34.1261C293.014 32.1754 295.224 31.2002 297.931 31.2002C301.602 31.2002 304.44 32.5218 306.439 35.165C308.436 37.8082 309.436 41.5271 309.436 46.3213V46.7861ZM300.222 46.2119C300.222 43.3682 299.84 41.3447 299.077 40.1415C298.332 38.9202 297.178 38.3095 295.615 38.3095C293.541 38.3095 292.105 39.1026 291.307 40.6885V52.4463C292.089 54.0141 293.541 54.7978 295.668 54.7978C297.832 54.7978 299.204 53.7405 299.786 51.6261C300.076 50.5869 300.222 48.7823 300.222 46.2119ZM327.785 61.8799C323.259 61.8799 319.598 60.5309 316.798 57.833C313.998 55.1167 312.6 51.5895 312.6 47.2509V46.4853C312.6 43.4594 313.153 40.7887 314.262 38.4735C315.389 36.1586 317.024 34.3719 319.17 33.1143C321.316 31.8383 323.86 31.2002 326.804 31.2002C330.949 31.2002 334.219 32.4943 336.62 35.0829C339.019 37.6533 340.218 41.2445 340.218 45.8565V49.4386H321.951C322.278 51.0973 322.996 52.4007 324.105 53.3487C325.214 54.2965 326.649 54.7706 328.412 54.7706C331.321 54.7706 333.592 53.7495 335.23 51.7079L339.428 56.6845C338.282 58.2706 336.655 59.5375 334.546 60.4853C332.457 61.4151 330.204 61.8799 327.785 61.8799ZM326.75 38.3095C324.06 38.3095 322.459 40.0959 321.951 43.669H331.22V42.9581C331.257 41.4815 330.885 40.3421 330.103 39.5399C329.322 38.7197 328.205 38.3095 326.75 38.3095Z" fill="black"/>
</g>
<defs>
<clipPath id="clip0_7445_16267">
<rect width="343" height="80" fill="white"/>
</clipPath>
</defs>
</svg>
