<svg width="275" height="88" viewBox="0 0 275 88" fill="none" xmlns="http://www.w3.org/2000/svg">
<path d="M28.9245 28.3272C28.1566 27.1007 26.6955 25.5649 24.3171 25.5649C23.2399 25.5649 22.472 25.9488 22.0134 26.4074C21.6294 26.7914 21.3201 27.41 21.3201 28.0926C21.3201 28.9351 21.7041 29.4791 22.3973 29.9377C22.8559 30.247 23.3145 30.3963 24.9357 31.2389L28.7752 33.1586C30.4604 34.0012 32.0815 34.8438 33.308 36.1556C35.0785 37.926 35.6864 39.9205 35.6864 42.1495C35.6864 45.0718 34.6092 47.5995 32.8494 49.5193C30.311 52.2816 27.1647 53.1242 23.7838 53.1242C21.7147 53.1242 19.1017 52.8149 16.798 51.0551C14.9529 49.6686 13.4171 47.4502 12.6492 45.1465L18.7924 42.2242C19.1764 43.3014 19.8696 44.6772 20.5629 45.2958C21.0215 45.7544 22.0987 46.5223 23.8691 46.5223C25.021 46.5223 26.2475 46.1384 26.9408 45.4451C27.5594 44.8265 28.018 43.8347 28.018 42.9068C28.018 41.9789 27.7087 41.2216 27.0154 40.4537C26.0982 39.5365 25.021 38.9926 23.7945 38.4593L21.0322 37.1581C19.571 36.4649 17.8112 35.6223 16.574 34.3958C14.8889 32.7853 14.2703 31.0149 14.2703 28.9458C14.2703 26.3328 15.2729 23.8051 16.958 22.0346C18.4191 20.4988 20.8722 18.963 24.8717 18.963C27.1754 18.963 29.0205 19.4216 30.8656 20.6481C31.9428 21.3414 33.404 22.5679 34.5559 24.637L28.9459 28.3272H28.9245Z" fill="#1A73E8"/>
<path d="M65.1549 19.8056H72.6847V52.1324H65.1549V48.7514C61.8486 52.591 57.7851 53.1242 55.4814 53.1242C45.4986 53.1242 39.814 44.8266 39.814 35.921C39.814 25.3943 47.0344 18.9524 55.5561 18.9524C57.9344 18.9524 62.0833 19.571 65.1549 23.5598V19.795V19.8056ZM47.493 36.081C47.493 41.691 51.0233 46.3731 56.4733 46.3731C61.23 46.3731 65.6135 42.9175 65.6135 36.1556C65.6135 29.3938 61.2407 25.7142 56.4733 25.7142C51.0233 25.7142 47.493 30.3217 47.493 36.081Z" fill="#1A73E8"/>
<path d="M90.9118 47.0664L77.0895 19.8057H86.155L95.3699 38.694L104.745 19.8057H113.192L79.9787 85.6551C79.2534 87.0931 77.7801 88.0001 76.1696 88.0001H70.3596L90.9225 47.0664H90.9118Z" fill="#1A73E8"/>
<path d="M117.095 19.8056H124.625V22.8025C127.163 19.7309 130.15 18.963 132.613 18.963C135.994 18.963 139.141 20.5735 140.986 23.7198C143.673 19.8802 147.748 18.963 150.585 18.963C154.499 18.963 157.954 20.8081 159.799 24.0291C160.418 25.1063 161.485 27.4846 161.485 32.1667V52.1323H153.955V34.3105C153.955 30.7056 153.571 29.2444 153.262 28.5512C152.803 27.3247 151.651 25.7142 148.963 25.7142C147.118 25.7142 145.508 26.7167 144.505 28.0926C143.204 29.9377 143.044 32.7 143.044 35.4623V52.1323H135.514V34.3105C135.514 30.7056 135.13 29.2444 134.821 28.5512C134.363 27.3247 133.211 25.7142 130.523 25.7142C128.678 25.7142 127.067 26.7167 126.065 28.0926C124.764 29.9377 124.604 32.7 124.604 35.4623V52.1323H117.074V19.8056H117.095Z" fill="#1A73E8"/>
<path d="M202.632 36.0063C202.632 45.9145 195.102 53.1349 185.354 53.1349C175.606 53.1349 168.076 45.9145 168.076 36.0063C168.076 26.0982 175.606 18.9524 185.354 18.9524C195.102 18.9524 202.632 26.0129 202.632 36.0063ZM194.953 36.081C194.953 28.7112 190.111 25.7142 185.354 25.7142C180.597 25.7142 175.755 28.7112 175.755 36.081C175.755 42.2989 179.445 46.3731 185.354 46.3731C191.262 46.3731 194.953 42.2989 194.953 36.081Z" fill="#1A73E8"/>
<path d="M209.297 19.8056H216.827V22.7279C217.67 21.7253 218.896 20.6588 219.973 20.0402C221.435 19.1977 222.896 18.963 224.581 18.963C226.426 18.963 228.42 19.2723 230.489 20.4988L227.418 27.3353C225.733 26.2581 224.346 26.1835 223.578 26.1835C221.968 26.1835 220.357 26.4181 218.896 27.9539C216.827 30.183 216.827 33.2546 216.827 35.409V52.1537H209.297V19.8269V19.8056Z" fill="#1A73E8"/>
<path d="M261.792 44.7626C260.406 47.2156 258.411 49.37 256.342 50.6712C253.729 52.3563 250.274 53.1242 246.818 53.1242C242.52 53.1242 238.99 52.047 235.918 48.9754C232.846 45.9038 231.161 41.4457 231.161 36.6143C231.161 31.7828 232.932 26.7808 236.302 23.3252C238.99 20.6375 242.52 18.9524 247.127 18.9524C252.268 18.9524 255.574 21.1815 257.494 23.1759C261.643 27.474 262.027 33.468 262.027 36.8489V37.7661H238.83C238.979 40.0698 239.982 42.6828 241.592 44.2933C243.363 46.0638 245.506 46.3624 247.351 46.3624C249.42 46.3624 250.956 45.9038 252.492 44.7519C253.793 43.7494 254.796 42.4482 255.489 41.2217L261.792 44.7519V44.7626ZM254.337 31.6335C254.028 29.8631 253.185 28.3273 252.034 27.2607C251.031 26.3435 249.42 25.4156 246.967 25.4156C244.354 25.4156 242.669 26.4928 241.667 27.4847C240.59 28.4872 239.747 30.023 239.363 31.6335H254.337Z" fill="#1A73E8"/>
<path d="M72.5139 88H69.3078C66.9542 88 65.0452 86.0939 65.0416 83.7404L65.0161 67.0745H4.26615C1.91002 67.0745 0 65.1645 0 62.8084V4.26616C0 1.91003 1.91002 0 4.26615 0H269.834C272.19 0 274.1 1.91002 274.1 4.26615V62.8084C274.1 65.1645 272.19 67.0745 269.834 67.0745H97.5669L99.5874 63.0336C100.31 61.5883 101.787 60.6753 103.403 60.6753H267.701V6.39922H6.39923V60.6753H68.2207C70.5749 60.6753 72.4841 62.5823 72.4869 64.9365L72.5139 88Z" fill="#1A73E8"/>
</svg>
