<svg width="128" height="78" viewBox="0 0 128 78" fill="none" xmlns="http://www.w3.org/2000/svg">
<path d="M73.2292 39.9233C68.3597 39.9233 65.0078 43.2473 64.1791 47.953L62.0301 60.1353C61.1996 64.8429 63.3802 68.165 68.2498 68.165C73.1194 68.165 76.4713 64.8429 77.2999 60.1353L79.4489 47.953C80.2794 43.2473 78.0988 39.9233 73.2292 39.9233ZM73.8754 48.6253L71.9648 59.4631C71.7637 60.6102 71.2758 62.707 69.2125 62.707C67.1493 62.707 67.4007 60.6121 67.6036 59.4631L69.5142 48.6253C69.7153 47.4782 70.2032 45.3814 72.2684 45.3814C74.3335 45.3814 74.0803 47.4763 73.8773 48.6253H73.8754Z" fill="#3355FF"/>
<path d="M96.7116 40.4373H92.423C92.127 40.4373 91.8718 40.6495 91.8197 40.9438L88.4901 59.8206C88.289 60.9677 87.7993 62.6288 85.9688 62.6288C84.1383 62.6288 84.2369 60.9677 84.4381 59.8206L87.7285 41.1561C87.7937 40.7818 87.5069 40.4373 87.1252 40.4373H82.8366C82.5405 40.4373 82.2854 40.6514 82.2332 40.9438L78.8497 60.1372C77.9558 65.2004 80.1215 68.1668 84.9911 68.1668C89.8607 68.1668 93.0711 65.2004 93.9631 60.1372L97.3094 41.1579C97.3746 40.7836 97.0878 40.4391 96.706 40.4391L96.7116 40.4373Z" fill="#3355FF"/>
<path d="M113.539 40.4374H99.5128C99.2167 40.4374 98.9616 40.6516 98.9094 40.9439L98.1348 45.3368C98.0696 45.7111 98.3564 46.0556 98.7381 46.0556H102.109C102.489 46.0556 102.777 46.3982 102.712 46.7744L99.1571 66.9342C99.0919 67.3085 99.3787 67.653 99.7604 67.653H104.127C104.423 67.653 104.678 67.4407 104.731 67.1465L108.36 46.5602C108.412 46.2679 108.665 46.0537 108.963 46.0537H112.766C113.062 46.0537 113.317 45.8414 113.369 45.5472L114.144 41.1543C114.209 40.78 113.922 40.4355 113.54 40.4355L113.539 40.4374Z" fill="#3355FF"/>
<path d="M10.4694 21.0463C7.78606 19.7018 7.59425 18.7912 7.80468 17.605C8.01324 16.4188 8.69852 15.1935 10.4899 15.1935C12.2813 15.1935 12.5178 16.4989 12.2813 17.8434L12.1361 18.6683C12.0709 19.0426 12.3577 19.3871 12.7394 19.3871H16.8716C17.1677 19.3871 17.4228 19.1749 17.4749 18.8806L17.6574 17.8434C18.5773 12.6237 16.0355 9.81372 11.4378 9.81372C6.84007 9.81372 3.35037 12.3854 2.42859 17.6069C1.50868 22.8284 3.59617 24.6869 7.89965 26.7837C10.4825 28.0481 10.2795 29.1952 10.084 30.3032C9.85307 31.6104 9.0095 32.6384 7.41362 32.6384C5.81774 32.6384 5.35592 31.4913 5.61477 30.0276L5.88478 28.4913C5.94996 28.117 5.66318 27.7725 5.28144 27.7725H1.15114C0.855057 27.7725 0.59994 27.9848 0.547799 28.2771L0.238678 30.0257C-0.668199 35.169 0.92582 38.0554 6.45833 38.0554C11.9908 38.0554 14.6314 35.0089 15.4675 30.2622C16.4712 24.5677 13.8716 22.7484 10.4694 21.0463Z" fill="#3355FF"/>
<path d="M31.9873 27.415H27.816C27.5181 27.415 27.2648 27.6291 27.2127 27.9215L26.9818 29.2343C26.7788 30.3814 26.2723 32.5974 24.168 32.5974C22.0638 32.5974 22.3394 30.3833 22.5405 29.2343L24.4082 18.6348C24.6112 17.4877 25.1177 15.2717 27.222 15.2717C29.3262 15.2717 29.0506 17.4877 28.8495 18.6348L28.6558 19.7354C28.5907 20.1097 28.8774 20.4542 29.2592 20.4542H33.4305C33.7265 20.4542 33.9817 20.24 34.0338 19.9477L34.4044 17.8434C35.2349 13.1377 33.0562 9.81372 28.1866 9.81372C23.317 9.81372 19.9651 13.1377 19.1364 17.8434L16.9875 30.0257C16.157 34.7333 18.3376 38.0554 23.2071 38.0554C28.0767 38.0554 31.4268 34.7333 32.2573 30.0257L32.5906 28.1338C32.6558 27.7595 32.369 27.415 31.9873 27.415Z" fill="#3355FF"/>
<path d="M51.827 10.3259H47.382C47.086 10.3259 46.8308 10.5382 46.7787 10.8324L45.0879 20.4226C45.0357 20.715 44.7825 20.9291 44.4845 20.9291H41.6764C41.2965 20.9291 41.0078 20.5865 41.073 20.2103L42.6894 11.0466C42.7546 10.6723 42.4678 10.3278 42.086 10.3278H37.641C37.3449 10.3278 37.0898 10.5401 37.0377 10.8343L32.4549 36.8246C32.3897 37.1989 32.6765 37.5434 33.0582 37.5434H37.5032C37.7993 37.5434 38.0544 37.3311 38.1066 37.0369L39.8663 27.0519C39.9185 26.7596 40.1717 26.5454 40.4697 26.5454H43.2778C43.6577 26.5454 43.9463 26.8881 43.8812 27.2642L42.1959 36.8246C42.1307 37.1989 42.4175 37.5434 42.7992 37.5434H47.2442C47.5403 37.5434 47.7954 37.3311 47.8476 37.0369L52.4304 11.0466C52.4956 10.6723 52.2088 10.3278 51.827 10.3278V10.3259Z" fill="#3355FF"/>
<path d="M56.7017 38.0554C61.5713 38.0554 64.9232 34.7333 65.7519 30.0257L67.9008 17.8434C68.7313 13.1377 66.5507 9.81372 61.6811 9.81372C56.8116 9.81372 53.4597 13.1377 52.631 17.8434L50.482 30.0257C49.6515 34.7333 51.8321 38.0554 56.7017 38.0554ZM56.0555 29.3535L57.9661 18.5156C58.1672 17.3685 58.6551 15.2717 60.7203 15.2717C62.7854 15.2717 62.5322 17.3667 62.3292 18.5156L60.4186 29.3535C60.2175 30.5006 59.7296 32.5974 57.6663 32.5974C55.603 32.5974 55.8544 30.5024 56.0574 29.3535H56.0555Z" fill="#3355FF"/>
<path d="M73.4502 38.0554C78.3198 38.0554 81.6717 34.7333 82.5004 30.0257L84.6493 17.8434C85.4799 13.1377 83.2993 9.81372 78.4297 9.81372C73.5601 9.81372 70.2082 13.1377 69.3795 17.8434L67.2306 30.0257C66.4001 34.7333 68.5807 38.0554 73.4502 38.0554ZM72.8022 29.3535L74.7128 18.5156C74.9139 17.3685 75.4018 15.2717 77.4669 15.2717C79.5321 15.2717 79.2788 17.3667 79.0759 18.5156L77.1653 29.3535C76.9642 30.5006 76.4763 32.5974 74.413 32.5974C72.3497 32.5974 72.6011 30.5024 72.8041 29.3535H72.8022Z" fill="#3355FF"/>
<path d="M98.1978 31.8452H90.075C89.6951 31.8452 89.4065 31.5025 89.4717 31.1264L93.0135 11.0447C93.0787 10.6704 92.7919 10.3259 92.4102 10.3259H87.9652C87.6691 10.3259 87.414 10.5382 87.3618 10.8324L82.779 36.8228C82.7139 37.1971 83.0006 37.5416 83.3824 37.5416H97.4083C97.7043 37.5416 97.9595 37.3293 98.0116 37.035L98.7993 32.564C98.8645 32.1897 98.5777 31.8452 98.196 31.8452H98.1978Z" fill="#3355FF"/>
<path d="M111.926 9.81201C107.331 9.81201 103.839 12.3837 102.917 17.6052C101.997 22.8267 104.085 24.6852 108.388 26.782C110.971 28.0464 110.768 29.1935 110.573 30.3015C110.344 31.6087 109.498 32.6366 107.902 32.6366C106.306 32.6366 105.846 31.4895 106.103 30.0259L106.375 28.4896C106.442 28.1153 106.154 27.7708 105.772 27.7708H101.638C101.342 27.7708 101.087 27.9849 101.035 28.2773L100.727 30.0259C99.8204 35.1692 101.414 38.0556 106.947 38.0556C112.479 38.0556 115.118 35.009 115.956 30.2624C116.96 24.5679 114.36 22.7485 110.958 21.0465C108.275 19.702 108.085 18.7914 108.293 17.6052C108.502 16.419 109.187 15.1937 110.979 15.1937C112.77 15.1937 113.006 16.4991 112.77 17.8436L112.625 18.6685C112.56 19.0428 112.846 19.3873 113.228 19.3873H117.36C117.656 19.3873 117.911 19.175 117.964 18.8808L118.146 17.8436C119.068 12.6239 116.524 9.81387 111.928 9.81387L111.926 9.81201Z" fill="#3355FF"/>
<path d="M127.928 6.24608C126.291 3.6111 124 1.48637 121.252 0.0562202C120.997 -0.0759939 120.68 0.0338742 120.555 0.292716L119.784 1.89046C119.663 2.14185 119.767 2.43794 120.013 2.56643C122.272 3.75263 124.16 5.50307 125.518 7.66877C125.665 7.90527 125.969 7.98721 126.211 7.84568L127.743 6.95556C127.993 6.81031 128.078 6.48816 127.926 6.24235L127.928 6.24608Z" fill="#3355FF"/>
<path d="M114.088 3.73799C113.824 3.72682 113.597 3.92979 113.565 4.19236L113.353 5.96515C113.319 6.25192 113.528 6.51821 113.818 6.53683C118.239 6.80126 121.775 10.3487 122.025 14.7751C122.04 15.0525 122.26 15.2723 122.537 15.2723H124.31C124.598 15.2723 124.837 15.0339 124.826 14.7453C124.572 8.77702 120.051 3.97821 114.09 3.73985L114.088 3.73799Z" fill="#3355FF"/>
<path d="M51.9435 71.7332C53.5804 74.3681 55.8709 76.4929 58.6194 77.923C58.8745 78.0552 59.1911 77.9454 59.3159 77.6865L60.0868 76.0888C60.2079 75.8374 60.1036 75.5413 59.8578 75.4128C57.599 74.2266 55.7107 72.4762 54.3532 70.3105C54.2061 70.074 53.9025 69.992 53.6605 70.1336L52.1279 71.0237C51.8784 71.1689 51.7927 71.4911 51.9454 71.7369L51.9435 71.7332Z" fill="#3355FF"/>
<path d="M65.7809 74.2394C66.0453 74.2505 66.2725 74.0476 66.3041 73.785L66.5164 72.0122C66.5499 71.7254 66.3414 71.4591 66.0509 71.4405C61.6301 71.1761 58.0938 67.6287 57.8443 63.2023C57.8294 62.9248 57.6097 62.7051 57.3322 62.7051H55.5594C55.2708 62.7051 55.0324 62.9434 55.0436 63.2321C55.2968 69.2003 59.8182 73.9991 65.779 74.2375L65.7809 74.2394Z" fill="#3355FF"/>
</svg>
