<?xml version="1.0" encoding="UTF-8"?> <!-- Generator: Adobe Illustrator 27.8.1, SVG Export Plug-In . SVG Version: 6.00 Build 0) --> <svg xmlns="http://www.w3.org/2000/svg" xmlns:xlink="http://www.w3.org/1999/xlink" version="1.1" id="Layer_1" x="0px" y="0px" viewBox="0 0 600 151" style="enable-background:new 0 0 600 151;" xml:space="preserve"> <style type="text/css"> .st0{fill:#1D1D1B;} .st1{fill:url(#XMLID_00000075843321238629597740000008113620546627088291_);} </style> <g id="XMLID_365_"> <g id="XMLID_112_"> <g id="XMLID_130_"> <path id="XMLID_205_" class="st0" d="M212.68,38.84c-0.08-0.26-0.23-0.5-0.45-0.71c-0.22-0.21-0.46-0.36-0.72-0.43l-1.58-0.47 v-0.93h9.43v0.93l-3.4,0.65l5.06,16.83l1.11,3.66l5.34-17.19l2.06-4.89h1.21l5.54,18.14l1.25,4.09l6.47-20.57l-3.36-0.73v-0.93 h7.67v0.93l-1.58,0.47c-0.26,0.08-0.5,0.24-0.72,0.47c-0.22,0.24-0.37,0.49-0.47,0.75l-6.51,20.02l-2.04,4.89h-1.29l-5.97-19.3 l-0.77-2.63l-5.34,17.05l-2.06,4.89h-1.35L212.68,38.84z"></path> <path id="XMLID_203_" class="st0" d="M252.91,62.61l2.51-0.53c0.26-0.07,0.48-0.2,0.66-0.42c0.18-0.21,0.27-0.46,0.27-0.75V38.92 c0-0.3-0.09-0.56-0.27-0.77c-0.18-0.21-0.4-0.35-0.66-0.42l-2.51-0.51v-0.93h19.86v6.39h-1.11l-1.4-4.21 c-0.07-0.2-0.16-0.36-0.28-0.49c-0.12-0.13-0.3-0.2-0.53-0.2h-9.53v10.82h6.25c0.26,0,0.45-0.06,0.57-0.18 c0.12-0.12,0.21-0.27,0.28-0.45l1.13-3.24h0.97v9.28h-0.97l-1.13-3.2c-0.07-0.21-0.16-0.38-0.28-0.5 c-0.12-0.13-0.31-0.19-0.57-0.19h-6.25v11.95h11.23c0.24,0,0.42-0.06,0.53-0.19c0.12-0.13,0.21-0.29,0.28-0.5l1.33-4.77h1.11 v6.96h-21.48V62.61z"></path> <path id="XMLID_199_" class="st0" d="M280.86,62.61l2.51-0.53c0.26-0.07,0.48-0.2,0.66-0.42c0.18-0.21,0.27-0.46,0.27-0.75V38.92 c0-0.3-0.09-0.56-0.27-0.77c-0.18-0.21-0.4-0.35-0.66-0.42l-2.51-0.51v-0.93h9.85c1.98,0,3.6,0.17,4.88,0.5 c1.27,0.34,2.27,0.79,3,1.35c0.73,0.56,1.23,1.2,1.5,1.93c0.28,0.73,0.42,1.48,0.42,2.25c0,0.86-0.14,1.65-0.42,2.37 c-0.28,0.72-0.67,1.38-1.19,1.96c-0.51,0.58-1.13,1.08-1.86,1.49c-0.73,0.42-1.53,0.74-2.41,0.98c1.06,0.04,2.05,0.22,2.98,0.54 c0.93,0.32,1.74,0.77,2.43,1.33c0.69,0.56,1.24,1.24,1.64,2.03c0.4,0.79,0.6,1.68,0.6,2.67c0,1.04-0.15,1.96-0.45,2.75 c-0.3,0.79-0.71,1.48-1.23,2.06c-0.52,0.58-1.13,1.06-1.84,1.45c-0.71,0.39-1.46,0.7-2.27,0.94c-0.81,0.24-1.66,0.41-2.54,0.5 c-0.88,0.1-1.77,0.15-2.65,0.15h-10.44V62.61z M289.66,48.85c1.32,0,2.43-0.12,3.33-0.36c0.9-0.24,1.63-0.58,2.19-1.02 c0.55-0.44,0.95-0.98,1.2-1.62c0.24-0.64,0.37-1.36,0.37-2.17c0-1.05-0.14-1.96-0.41-2.71c-0.27-0.75-0.68-1.37-1.22-1.85 c-0.54-0.48-1.22-0.83-2.03-1.06c-0.81-0.22-1.76-0.34-2.84-0.34h-2.39v11.12H289.66z M292.03,62.08c2.11,0,3.69-0.44,4.75-1.31 c1.05-0.87,1.58-2.29,1.58-4.27c0-1.16-0.14-2.14-0.43-2.94c-0.29-0.8-0.74-1.44-1.34-1.94c-0.61-0.49-1.38-0.85-2.32-1.08 c-0.94-0.22-2.06-0.34-3.35-0.34h-3.05v11.87H292.03z"></path> <path id="XMLID_149_" class="st0" d="M323.82,62.61l2.51-0.53c0.26-0.07,0.48-0.2,0.66-0.42c0.18-0.21,0.27-0.46,0.27-0.75V38.92 c0-0.3-0.09-0.56-0.27-0.77c-0.18-0.21-0.4-0.35-0.66-0.42l-2.51-0.51v-0.93h19.86v6.39h-1.11l-1.4-4.21 c-0.07-0.2-0.16-0.36-0.28-0.49c-0.12-0.13-0.3-0.2-0.53-0.2h-9.53v10.82h6.25c0.26,0,0.45-0.06,0.57-0.18 c0.12-0.12,0.21-0.27,0.28-0.45l1.13-3.24h0.97v9.28h-0.97l-1.13-3.2c-0.07-0.21-0.16-0.38-0.28-0.5 c-0.12-0.13-0.31-0.19-0.57-0.19h-6.25v11.95h11.23c0.24,0,0.42-0.06,0.53-0.19c0.12-0.13,0.21-0.29,0.28-0.5l1.32-4.77h1.11 v6.96h-21.48V62.61z"></path> <path id="XMLID_147_" class="st0" d="M351,62.61l1.46-0.46c0.3-0.11,0.6-0.3,0.9-0.57c0.3-0.28,0.54-0.54,0.72-0.79l7.46-10.54 l-7.3-11.37c-0.08-0.12-0.17-0.24-0.28-0.37c-0.11-0.13-0.22-0.24-0.34-0.36c-0.12-0.11-0.24-0.21-0.36-0.3 c-0.12-0.09-0.23-0.14-0.34-0.17l-1.7-0.47v-0.93h9.85v0.93l-3.4,0.65l4.94,7.81l1.38,2.27l6.59-10.01l-3.22-0.73v-0.93h7.69 v0.93l-1.46,0.43c-0.29,0.09-0.59,0.28-0.89,0.57c-0.3,0.29-0.55,0.56-0.73,0.81L364.9,49.2l7.5,11.75 c0.14,0.22,0.35,0.46,0.6,0.7c0.26,0.24,0.48,0.4,0.68,0.46l1.7,0.5v0.93h-9.85v-0.93l3.4-0.65l-5.14-8.15l-1.36-2.29 l-6.92,10.36l3.18,0.73v0.93H351V62.61z"></path> <path id="XMLID_145_" class="st0" d="M403.29,58.22v1.66c-0.54,0.46-1.17,0.94-1.88,1.43c-0.71,0.49-1.49,0.95-2.32,1.37 c-0.84,0.42-1.72,0.76-2.66,1.03c-0.94,0.27-1.89,0.4-2.87,0.4c-1.99,0-3.79-0.33-5.39-0.98c-1.6-0.65-2.97-1.59-4.1-2.81 c-1.13-1.22-2.01-2.7-2.62-4.45c-0.61-1.75-0.92-3.72-0.92-5.9c0-2.11,0.33-4.04,1-5.8c0.67-1.75,1.59-3.26,2.76-4.51 c1.17-1.25,2.55-2.22,4.14-2.92c1.59-0.69,3.31-1.04,5.17-1.04c0.65,0,1.36,0.05,2.14,0.14c0.78,0.09,1.56,0.21,2.33,0.36 c0.78,0.14,1.52,0.31,2.24,0.49s1.33,0.37,1.86,0.55v6.31h-1.05l-1.27-3.46c-0.07-0.25-0.17-0.43-0.32-0.55 c-0.14-0.12-0.31-0.23-0.49-0.34c-0.42-0.24-0.9-0.46-1.42-0.67c-0.53-0.21-1.08-0.4-1.66-0.56c-0.58-0.16-1.16-0.29-1.75-0.39 c-0.59-0.09-1.15-0.14-1.69-0.14c-1.17,0-2.25,0.25-3.24,0.74c-0.99,0.49-1.84,1.24-2.55,2.22c-0.71,0.99-1.27,2.23-1.66,3.71 c-0.4,1.48-0.59,3.21-0.59,5.19c0,4.13,0.88,7.23,2.63,9.3s4.27,3.11,7.54,3.11c1.08,0,2.04-0.11,2.89-0.35 c0.84-0.23,1.6-0.52,2.27-0.87c0.67-0.35,1.26-0.73,1.77-1.14c0.51-0.41,0.97-0.79,1.37-1.15H403.29z"></path> <path id="XMLID_143_" class="st0" d="M409.25,62.61l2.51-0.53c0.26-0.07,0.48-0.2,0.66-0.42c0.18-0.21,0.27-0.46,0.27-0.75V38.92 c0-0.3-0.09-0.56-0.27-0.77c-0.18-0.21-0.4-0.35-0.66-0.42l-2.51-0.51v-0.93h19.86v6.39H428l-1.4-4.21 c-0.07-0.2-0.16-0.36-0.28-0.49c-0.12-0.13-0.3-0.2-0.53-0.2h-9.53v10.82h6.25c0.26,0,0.45-0.06,0.57-0.18 c0.12-0.12,0.21-0.27,0.28-0.45l1.13-3.24h0.97v9.28h-0.97l-1.13-3.2c-0.07-0.21-0.16-0.38-0.28-0.5 c-0.12-0.13-0.31-0.19-0.57-0.19h-6.25v11.95h11.23c0.24,0,0.42-0.06,0.53-0.19c0.12-0.13,0.21-0.29,0.28-0.5l1.33-4.77h1.11 v6.96h-21.48V62.61z"></path> <path id="XMLID_141_" class="st0" d="M437.2,62.61l2.51-0.53c0.26-0.07,0.48-0.2,0.66-0.42c0.18-0.21,0.27-0.46,0.27-0.75V38.92 c0-0.3-0.09-0.56-0.27-0.77c-0.18-0.21-0.4-0.35-0.66-0.42l-2.51-0.51v-0.93h10.58v0.93l-2.63,0.51 c-0.26,0.05-0.49,0.19-0.67,0.42c-0.19,0.22-0.28,0.48-0.28,0.77v23.12h10.01c0.13,0,0.25-0.04,0.35-0.11 c0.1-0.07,0.18-0.16,0.25-0.28c0.07-0.11,0.12-0.23,0.16-0.35c0.04-0.12,0.07-0.22,0.1-0.32l1.5-5.22h1.05v7.77H437.2V62.61z"></path> <path id="XMLID_139_" class="st0" d="M463.15,62.61l2.51-0.53c0.26-0.07,0.48-0.2,0.66-0.42c0.18-0.21,0.27-0.46,0.27-0.75V38.92 c0-0.3-0.09-0.56-0.27-0.77c-0.18-0.21-0.4-0.35-0.66-0.42l-2.51-0.51v-0.93h10.58v0.93l-2.63,0.51 c-0.26,0.05-0.49,0.19-0.67,0.42c-0.19,0.22-0.28,0.48-0.28,0.77v23.12h10.01c0.13,0,0.25-0.04,0.35-0.11 c0.1-0.07,0.18-0.16,0.25-0.28c0.07-0.11,0.12-0.23,0.16-0.35c0.04-0.12,0.07-0.22,0.1-0.32l1.5-5.22h1.05v7.77h-20.41V62.61z"></path> <path id="XMLID_137_" class="st0" d="M489.1,62.61l2.51-0.53c0.26-0.07,0.48-0.2,0.66-0.42c0.18-0.21,0.27-0.46,0.27-0.75V38.92 c0-0.3-0.09-0.56-0.27-0.77c-0.18-0.21-0.4-0.35-0.66-0.42l-2.51-0.51v-0.93h19.86v6.39h-1.11l-1.4-4.21 c-0.07-0.2-0.16-0.36-0.28-0.49c-0.12-0.13-0.3-0.2-0.53-0.2h-9.53v10.82h6.25c0.26,0,0.45-0.06,0.57-0.18 c0.12-0.12,0.21-0.27,0.28-0.45l1.13-3.24h0.97v9.28h-0.97l-1.13-3.2c-0.07-0.21-0.16-0.38-0.28-0.5 c-0.12-0.13-0.31-0.19-0.57-0.19h-6.25v11.95h11.23c0.24,0,0.42-0.06,0.53-0.19c0.12-0.13,0.21-0.29,0.28-0.5l1.33-4.77h1.11 v6.96H489.1V62.61z"></path> <path id="XMLID_135_" class="st0" d="M517.04,62.61l2.51-0.65c0.26-0.07,0.48-0.21,0.66-0.43c0.18-0.22,0.27-0.46,0.27-0.74V39 c0-0.3-0.09-0.56-0.27-0.76c-0.18-0.2-0.4-0.34-0.66-0.4l-2.71-0.61v-0.93h6.65l13.07,18.79l1.86,2.71V39.04 c0-0.3-0.09-0.56-0.27-0.76c-0.18-0.2-0.4-0.34-0.66-0.41l-2.51-0.65v-0.93h8.6v0.93l-2.51,0.65c-0.26,0.07-0.49,0.2-0.67,0.42 c-0.18,0.21-0.28,0.46-0.28,0.75v19.98l-0.59,4.73h-1.11l-14.16-20.33l-2.08-3.03v20.41c0,0.3,0.09,0.56,0.27,0.76 c0.18,0.2,0.4,0.34,0.66,0.41l2.51,0.65v0.93h-8.58V62.61z"></path> <path id="XMLID_133_" class="st0" d="M572.57,58.22v1.66c-0.54,0.46-1.17,0.94-1.88,1.43c-0.71,0.49-1.49,0.95-2.32,1.37 c-0.84,0.42-1.72,0.76-2.66,1.03c-0.94,0.27-1.89,0.4-2.87,0.4c-1.99,0-3.79-0.33-5.39-0.98c-1.6-0.65-2.97-1.59-4.1-2.81 c-1.13-1.22-2.01-2.7-2.62-4.45c-0.61-1.75-0.92-3.72-0.92-5.9c0-2.11,0.33-4.04,1-5.8c0.67-1.75,1.59-3.26,2.76-4.51 c1.17-1.25,2.55-2.22,4.14-2.92c1.59-0.69,3.31-1.04,5.17-1.04c0.65,0,1.36,0.05,2.14,0.14c0.78,0.09,1.56,0.21,2.33,0.36 c0.78,0.14,1.52,0.31,2.24,0.49s1.33,0.37,1.86,0.55v6.31h-1.05l-1.27-3.46c-0.07-0.25-0.17-0.43-0.32-0.55 c-0.14-0.12-0.31-0.23-0.49-0.34c-0.42-0.24-0.9-0.46-1.42-0.67c-0.53-0.21-1.08-0.4-1.66-0.56c-0.58-0.16-1.16-0.29-1.75-0.39 c-0.59-0.09-1.15-0.14-1.69-0.14c-1.17,0-2.25,0.25-3.24,0.74s-1.84,1.24-2.55,2.22c-0.71,0.99-1.27,2.23-1.66,3.71 c-0.4,1.48-0.59,3.21-0.59,5.19c0,4.13,0.88,7.23,2.63,9.3s4.27,3.11,7.54,3.11c1.08,0,2.04-0.11,2.89-0.35 c0.84-0.23,1.6-0.52,2.27-0.87c0.67-0.35,1.26-0.73,1.77-1.14c0.51-0.41,0.97-0.79,1.37-1.15H572.57z"></path> <path id="XMLID_131_" class="st0" d="M578.52,62.61l2.51-0.53c0.26-0.07,0.48-0.2,0.66-0.42c0.18-0.21,0.27-0.46,0.27-0.75V38.92 c0-0.3-0.09-0.56-0.27-0.77c-0.18-0.21-0.4-0.35-0.66-0.42l-2.51-0.51v-0.93h19.86v6.39h-1.11l-1.4-4.21 c-0.07-0.2-0.16-0.36-0.28-0.49s-0.3-0.2-0.53-0.2h-9.53v10.82h6.25c0.26,0,0.45-0.06,0.57-0.18c0.12-0.12,0.21-0.27,0.28-0.45 l1.13-3.24h0.97v9.28h-0.97l-1.13-3.2c-0.07-0.21-0.16-0.38-0.28-0.5c-0.12-0.13-0.31-0.19-0.57-0.19h-6.25v11.95h11.23 c0.24,0,0.42-0.06,0.53-0.19c0.12-0.13,0.21-0.29,0.28-0.5l1.33-4.77H600v6.96h-21.48V62.61z"></path> </g> <g id="XMLID_113_"> <path id="XMLID_127_" class="st0" d="M209.93,147.53l3.99-1.16c0.62-0.19,1.17-0.53,1.65-1.05c0.48-0.51,0.84-1.07,1.09-1.69 l18.44-48.2l5.62-10.68h1.81l22.76,58.89c0.25,0.62,0.61,1.18,1.09,1.69c0.48,0.51,1.03,0.86,1.65,1.05l3.99,1.16v2.18H249.4 v-2.18l8.08-1.53l-7.71-20.06H227.3l-7.2,19.88l7.9,1.72v2.18h-18.07V147.53z M248.34,122.41l-7.62-19.6l-2.32-6.27h-0.05 l-9.61,25.87H248.34z"></path> <path id="XMLID_125_" class="st0" d="M275.62,91.71c-0.19-0.62-0.53-1.18-1.05-1.67s-1.08-0.84-1.7-1.02l-3.71-1.12v-2.18h22.15 v2.18l-7.99,1.53l11.89,39.52l2.6,8.59l12.54-40.36l4.83-11.47h2.83l13,42.59l2.93,9.61l15.18-48.3l-7.89-1.72v-2.18h18.02v2.18 l-3.72,1.12c-0.62,0.18-1.18,0.56-1.69,1.11c-0.51,0.56-0.88,1.14-1.09,1.76l-15.28,47l-4.78,11.47h-3.02l-14.03-45.33 l-1.81-6.18l-12.54,40.03l-4.83,11.47h-3.16L275.62,91.71z"></path> <path id="XMLID_122_" class="st0" d="M355.84,147.53l3.99-1.16c0.62-0.19,1.17-0.53,1.65-1.05c0.48-0.51,0.84-1.07,1.09-1.69 l18.44-48.2l5.62-10.68h1.81l22.76,58.89c0.25,0.62,0.61,1.18,1.09,1.69c0.48,0.51,1.03,0.86,1.65,1.05l4,1.16v2.18h-22.62v-2.18 l8.08-1.53l-7.71-20.06h-22.48l-7.2,19.88l7.89,1.72v2.18h-18.07V147.53z M394.25,122.41l-7.62-19.6l-2.32-6.27h-0.05 l-9.61,25.87H394.25z"></path> <path id="XMLID_119_" class="st0" d="M422.79,147.53l5.9-1.25c0.62-0.15,1.14-0.48,1.56-0.97c0.42-0.49,0.63-1.08,0.63-1.76V91.9 c0-0.71-0.21-1.32-0.63-1.81c-0.42-0.49-0.94-0.82-1.56-0.98l-5.9-1.21v-2.18h23.5c3.16,0,5.93,0.22,8.31,0.65 c2.38,0.43,4.44,1.03,6.15,1.79c1.72,0.76,3.14,1.64,4.27,2.65c1.13,1.01,2.03,2.1,2.69,3.27c0.67,1.18,1.13,2.41,1.39,3.69 c0.26,1.28,0.4,2.56,0.4,3.83c0,2.63-0.47,4.97-1.42,7.01c-0.95,2.04-2.14,3.79-3.58,5.25c-1.44,1.45-3.01,2.64-4.71,3.55 c-1.7,0.91-3.3,1.56-4.78,1.93l17.6,23.22c0.28,0.37,0.62,0.77,1.02,1.18c0.4,0.42,0.82,0.81,1.25,1.16 c0.43,0.36,0.88,0.67,1.32,0.93c0.45,0.26,0.87,0.44,1.28,0.53l5.2,1.16v2.18h-9.8c-1.39,0-2.55-0.11-3.46-0.32 c-0.91-0.22-1.71-0.57-2.39-1.05c-0.68-0.48-1.31-1.08-1.88-1.81c-0.57-0.73-1.23-1.6-1.97-2.62l-16.44-22.71l-7.52-1.44v23.78 c0,0.71,0.18,1.3,0.53,1.76c0.36,0.46,0.84,0.79,1.46,0.97l6.87,1.25v2.18h-25.31V147.53z M439.23,116.88 c0.34,0.09,0.82,0.17,1.44,0.23c0.62,0.06,1.28,0.12,2,0.16c0.71,0.05,1.4,0.08,2.07,0.09c0.66,0.02,1.21,0.02,1.65,0.02 c2.42,0,4.51-0.4,6.29-1.19c1.78-0.79,3.26-1.83,4.44-3.13s2.06-2.8,2.65-4.5c0.59-1.7,0.88-3.48,0.88-5.34 c0-2.48-0.34-4.6-1.02-6.38c-0.68-1.78-1.67-3.24-2.95-4.39c-1.28-1.14-2.87-1.99-4.76-2.53c-1.89-0.54-4.04-0.81-6.46-0.81 h-6.22V116.88z"></path> <path id="XMLID_116_" class="st0" d="M486.8,147.53l5.9-1.25c0.62-0.15,1.14-0.48,1.56-0.97c0.42-0.49,0.63-1.08,0.63-1.76V91.9 c0-0.71-0.21-1.32-0.63-1.81c-0.42-0.49-0.94-0.82-1.56-0.98l-5.9-1.21v-2.18h26.52c2.07,0,4.3,0.2,6.69,0.6 c2.38,0.4,4.75,1.08,7.11,2.04c2.35,0.96,4.61,2.24,6.78,3.83c2.17,1.59,4.09,3.58,5.76,5.97c1.67,2.38,3,5.21,3.99,8.48 s1.49,7.04,1.49,11.31c0,5.45-0.84,10.17-2.53,14.16c-1.69,4-3.99,7.29-6.9,9.89c-2.91,2.6-6.31,4.54-10.19,5.81 c-3.88,1.27-8.01,1.9-12.38,1.9H486.8V147.53z M513.92,146.28c3.72,0,6.94-0.6,9.68-1.81c2.74-1.21,5.02-2.96,6.85-5.25 c1.83-2.29,3.19-5.11,4.09-8.45c0.9-3.34,1.35-7.14,1.35-11.38c0-4.67-0.6-8.88-1.79-12.61c-1.19-3.73-2.87-6.9-5.04-9.52 c-2.17-2.62-4.78-4.63-7.83-6.04c-3.05-1.41-6.42-2.11-10.1-2.11h-7.9v57.17H513.92z"></path> <path id="XMLID_114_" class="st0" d="M556.72,130.58h2.46l3.67,9.24c0.15,0.37,0.46,0.81,0.91,1.3c0.45,0.5,0.84,0.85,1.18,1.07 c1.11,0.71,2.32,1.36,3.62,1.95c1.3,0.59,2.6,1.09,3.9,1.51c1.3,0.42,2.54,0.74,3.72,0.97c1.18,0.23,2.21,0.35,3.11,0.35 c1.95,0,3.72-0.28,5.32-0.84c1.59-0.56,2.96-1.37,4.09-2.44c1.13-1.07,2-2.38,2.6-3.95c0.6-1.56,0.91-3.35,0.91-5.36 c0-2.85-0.77-5.18-2.32-6.99c-1.55-1.81-3.64-3.27-6.27-4.39c-1.18-0.49-2.34-0.91-3.48-1.23c-1.14-0.33-2.3-0.64-3.46-0.95 c-1.16-0.31-2.32-0.63-3.48-0.95c-1.16-0.32-2.32-0.72-3.46-1.18c-3.47-1.39-6.15-3.39-8.06-5.99c-1.9-2.6-2.86-5.76-2.86-9.47 c0-2.63,0.51-5.1,1.53-7.41c1.02-2.31,2.44-4.32,4.25-6.04s3.96-3.07,6.43-4.04c2.48-0.98,5.15-1.46,8.03-1.46 c1.58,0,3.14,0.09,4.69,0.26c1.55,0.17,3.07,0.4,4.55,0.67c1.49,0.28,2.93,0.61,4.32,1c1.39,0.39,2.74,0.8,4.04,1.23v15.09h-2.46 l-3.21-8.59c-0.15-0.46-0.44-0.88-0.86-1.25c-0.42-0.37-0.8-0.68-1.14-0.93c-0.74-0.56-1.61-1.04-2.6-1.44 c-0.99-0.4-2-0.74-3.04-1.02c-1.04-0.28-2.05-0.49-3.04-0.63c-0.99-0.14-1.84-0.21-2.55-0.21c-1.83,0-3.46,0.26-4.9,0.77 c-1.44,0.51-2.65,1.22-3.65,2.11c-0.99,0.9-1.76,1.98-2.3,3.25c-0.54,1.27-0.81,2.65-0.81,4.13c0,1.3,0.12,2.57,0.37,3.81 c0.25,1.24,0.7,2.4,1.35,3.48c0.65,1.08,1.54,2.08,2.67,3s2.56,1.68,4.3,2.3c1.11,0.4,2.22,0.76,3.32,1.07 c1.1,0.31,2.21,0.62,3.32,0.93s2.25,0.65,3.41,1.02s2.38,0.82,3.65,1.35c1.42,0.59,2.82,1.29,4.2,2.11 c1.38,0.82,2.61,1.83,3.69,3.04s1.96,2.65,2.62,4.32c0.67,1.67,1,3.65,1,5.94c0,2.45-0.44,4.87-1.32,7.27 c-0.88,2.4-2.28,4.54-4.18,6.43s-4.34,3.42-7.31,4.6c-2.97,1.18-6.53,1.76-10.68,1.76c-1.36,0-2.79-0.12-4.3-0.35 c-1.5-0.23-3.05-0.53-4.64-0.91c-1.59-0.37-3.21-0.8-4.85-1.3c-1.64-0.49-3.27-1.01-4.88-1.53L556.72,130.58z"></path> </g> </g> <g id="XMLID_105_"> <linearGradient id="XMLID_00000102508083611288426170000017975755120308810630_" gradientUnits="userSpaceOnUse" x1="17.5386" y1="175.5537" x2="167.906" y2="20.358"> <stop offset="0" style="stop-color:#D54870"></stop> <stop offset="1" style="stop-color:#D75177"></stop> </linearGradient> <path id="XMLID_111_" style="fill:url(#XMLID_00000102508083611288426170000017975755120308810630_);" d="M93.77,89.67l1.76-4.83 l1.75,4.64l19.76,60.74h57.77c10.57-15.43,16.76-34.1,16.76-54.21C191.58,42.99,148.59,0,95.56,0C42.53,0-0.46,42.99-0.46,96.02 c0,20.12,6.19,38.78,16.76,54.21h57.77L93.77,89.67z"></path> </g> </g> </svg> 